<svg width="26px" height="26px" viewBox="0 0 26 26" version="1.1" xmlns="http://www.w3.org/2000/svg" xmlns:xlink="http://www.w3.org/1999/xlink">
    <path class="icon-fill" d="M12.1996613,13.9085775 L18.5456859,10.8890103 C19.4598383,10.4848796 18.8649189,9.18246618 17.9046006,9.6004216 L12.5133281,11.9846965 L12.5133281,5.72083077 C12.5133281,4.73734951 11,4.7823601 11,5.72083077 L11.0229193,13.2237736 C11.0225919,13.7847984 11.6397757,14.1892506 12.1996613,13.9085775"></path>
    <path class="icon-fill" d="M11.8654442,22.6447792 C6.06118442,22.6447792 1.3550026,17.9389091 1.3550026,12.134961 C1.3550026,6.3307013 6.06118442,1.62514286 11.8654442,1.62514286 C17.6693922,1.62514286 22.3752623,6.3307013 22.3752623,12.134961 C22.3752623,17.9392208 17.6697039,22.6447792 11.8654442,22.6447792 M11.8654442,0.269922078 C5.31250909,0.269922078 9.35064935e-05,5.58202597 9.35064935e-05,12.134961 C9.35064935e-05,18.6882078 5.31250909,24 11.8654442,24 C18.4177558,24 23.7298597,18.6878961 23.7298597,12.134961 C23.7298597,5.58202597 18.4180675,0.269922078 11.8654442,0.269922078"></path>
</svg>
