<svg xmlns="http://www.w3.org/2000/svg" viewBox="0 0 50 50">
  <title>community</title>
  <path class="icon-fill" d="M43.29,30.34H41a17.42,17.42,0,0,1-4.5,6.36q.24,1.19.45,2.43A19.5,19.5,0,0,0,43.29,30.34Z"/>
  <path class="icon-fill" d="M25,4.41a19.19,19.19,0,0,0-9,2.23l1.16,1.83A17.21,17.21,0,0,1,31.7,7.93L34,6.64A19.31,19.31,0,0,0,25,4.41Z"/>
  <path class="icon-fill" d="M13.07,39.13q.21-1.25.45-2.43A17.27,17.27,0,0,1,9,30.34H6.71A19.54,19.54,0,0,0,13.07,39.13Z"/>
  <path class="icon-fill" d="M6.44,13.48h.93A3.68,3.68,0,0,0,11,9.81V7.92a3.85,3.85,0,0,0-.1-.83A3.66,3.66,0,0,0,7.37,4.25H6.15A3.68,3.68,0,0,0,2.77,7.92V9.81A3.69,3.69,0,0,0,6.44,13.48Z"/>
  <path class="icon-fill" d="M13.81,21.45A4.83,4.83,0,0,0,9,16.64H4.81a4.89,4.89,0,0,0-3.74,1.79,4.77,4.77,0,0,0-1.07,3v2.82H13.81Z"/>
  <path class="icon-fill" d="M42.63,13.48h.93a3.69,3.69,0,0,0,3.67-3.67V7.92a3.69,3.69,0,0,0-3.67-3.67h-.93A3.68,3.68,0,0,0,39,7.92V9.81A3.68,3.68,0,0,0,42.63,13.48Z"/>
  <path class="icon-fill" d="M50,21.45a4.77,4.77,0,0,0-1.07-3h0A4.91,4.91,0,0,0,46.85,17a4.69,4.69,0,0,0-1.66-.3H41a4.83,4.83,0,0,0-4.81,4.81v2.82H50Z"/>
  <path class="icon-fill" d="M25.47,35a3.69,3.69,0,0,0,3.67-3.67V29.4a3.69,3.69,0,0,0-3.67-3.67h-.93a3.69,3.69,0,0,0-3.67,3.67v1.89A3.68,3.68,0,0,0,24.52,35h.95Z"/>
  <path class="icon-fill" d="M31.91,42.93a4.83,4.83,0,0,0-4.81-4.81H22.91a4.83,4.83,0,0,0-4.81,4.81v2.82H31.91Z"/>
</svg>
