<svg xmlns="http://www.w3.org/2000/svg" viewBox="0 0 50 50">
  <title>cube</title>
  <path class="icon-fill" d="M25.85,50,46.24,38.24V14.45L25.85,26.22Zm1.7-22.8,17-9.8V37.25l-17,9.82Z"/>
  <polygon class="icon-fill" points="25 3.92 24.14 4.42 24.14 20.11 25 20.59 25.84 20.11 25.84 4.42 25 3.92"/>
  <path class="icon-fill" d="M25,0,3.76,12.26,25,24.52,46.25,12.26ZM7.16,12.26,25,2l17.84,10.3L25,22.56Z"/>
  <polygon class="icon-fill" points="42.84 36.27 29.24 28.42 29.24 30.39 41.14 37.26 42.84 36.27"/>
  <path class="icon-fill" d="M24.16,26.22,3.76,14.45V38.24L24.16,50Zm-1.7,20.84-17-9.81V17.4l17,9.81Z"/>
  <polygon class="icon-fill" points="7.16 36.27 20.76 28.42 20.76 30.39 8.86 37.26 7.16 36.27"/>
</svg>
