<svg xmlns="http://www.w3.org/2000/svg" viewBox="0 0 50 50">
  <title>education</title>
  <path class="icon-fill" d="M10.92,21.45a14.06,14.06,0,0,0,7.94,13.12V39.2A2.1,2.1,0,0,0,21,41.33H29a2.1,2.1,0,0,0,2.11-2.11h0V34.57A14.08,14.08,0,1,0,10.92,21.45Z"/>
  <path class="icon-fill" d="M32.7,46.33a.54.54,0,0,0,0-1.07H17.3a.54.54,0,0,0,0,1.07Z"/>
  <path class="icon-fill" d="M7.64,21.51A.54.54,0,0,0,7.1,21H.54A.54.54,0,0,0,.54,22H7.11A.55.55,0,0,0,7.64,21.51Z"/>
  <path class="icon-fill" d="M49.46,21H42.89a.54.54,0,0,0,0,1.07h6.57A.54.54,0,1,0,49.61,21,.38.38,0,0,0,49.46,21Z"/>
  <path class="icon-fill" d="M8.08,3.84a.54.54,0,0,0-.76.07.56.56,0,0,0,0,.69L12,9.23a.54.54,0,0,0,.76-.07.56.56,0,0,0,0-.69Z"/>
  <path class="icon-fill" d="M42.68,3.84a.54.54,0,0,0-.76,0L37.27,8.48a.56.56,0,0,0,.73.85h0v-.1l4.65-4.64A.54.54,0,0,0,42.68,3.84Z"/>
</svg>
