<svg xmlns="http://www.w3.org/2000/svg" viewBox="0 0 50 50">
  <title>initial-exam</title>
  <path class="icon-fill" d="M50,25h0C50,11.19,39.24,0,26,0H24C10.76,0,0,11.2,0,25H0C0,38.8,10.76,50,24,50H26C39.24,50,50,38.81,50,25ZM37.62,23.5a13.56,13.56,0,0,0-1.16,5.82c0,3.69-.56,6.5-1.69,8.34a4.28,4.28,0,0,1-3.62,2.41c-2.58-.08-2.55-2.72-2.62-5a22.56,22.56,0,0,0-.48-4.64A3.52,3.52,0,0,0,25,27.82a3.4,3.4,0,0,0-3,2.58,24.61,24.61,0,0,0-.45,4.54c-.09,2.48-.06,5.05-2.64,5.21-.9,0-5.35-.57-5.35-10.83a14.18,14.18,0,0,0-1.23-6A10.11,10.11,0,0,1,11.5,17c.8-4.41,4.23-7,9.16-7a12,12,0,0,1,4.07.68.79.79,0,0,0,.48,0A12.05,12.05,0,0,1,29.29,10c3.81,0,8.22,1.85,9.15,7A10.26,10.26,0,0,1,37.62,23.5Z"/>
  <path class="icon-fill" d="M27.74,18.09a25.22,25.22,0,0,0-2.72.39s-2.06-.34-2.76-.39c-4-.28-4.89,1.75-5.29,3.64a28.8,28.8,0,0,0-.14,5c0,6.25,1,9.71,2.61,9.68.29-.22.26-2,.26-2.72C19.7,31,20,25,25,25c4.84,0,5.33,5.4,5.33,8.85,0,.67-.1,2.35.26,2.61,1.55,0,2.51-3.22,2.61-9.86a18.51,18.51,0,0,0-.2-4.76C32.36,18.53,30.09,17.92,27.74,18.09Z"/>
</svg>
