<svg xmlns="http://www.w3.org/2000/svg" viewBox="0 0 50 50">
  <title>personal</title>
  <path class="icon-fill" d="M25,8.44a8,8,0,1,0,8,8A8,8,0,0,0,25,8.44ZM9.66,13.55a5.11,5.11,0,1,0,5.11,5.11A5.11,5.11,0,0,0,9.66,13.55Zm30.68,0a5.11,5.11,0,1,0,5.11,5.11A5.11,5.11,0,0,0,40.34,13.55ZM9.66,25.48A9.67,9.67,0,0,0,0,35.14a1.15,1.15,0,0,0,1.14,1.14h9.8a14.87,14.87,0,0,0-.71,4.55A1.15,1.15,0,0,0,11.37,42H38.64a1.15,1.15,0,0,0,1.14-1.14,14.87,14.87,0,0,0-.71-4.55h9.8A1.14,1.14,0,0,0,50,35.14a9.64,9.64,0,0,0-16.73-6.55h0a14.67,14.67,0,0,0-16.51,0A9.59,9.59,0,0,0,9.66,25.48Z"/>
</svg>
