<svg id="5d4e8854-42e4-4a78-917f-f1f1f04ac52a" data-name="Layer 1" xmlns="http://www.w3.org/2000/svg" viewBox="0 0 50 50">
  <title>snapchat</title>
  <circle class='icon-background' cx="25" cy="25" r="24.5"/>
  <path class='icon-fill' d="M24.57,11.32a8.67,8.67,0,0,1,1.26,0,7.12,7.12,0,0,1,4.79,2.39,14.73,14.73,0,0,1,1.72,4.34c.14.69,0,3.2.53,3.65.79.67,1.55-.34,2.19.2,1.34,1.13-1.86,2.79-2,4-.25,2.19,2.31,5.42,3.73,6.74,1,.92,2.16,1.05,1.56,2.33s-2.5,1.07-3.66,1c.45,1.91-3.49.61-4.6.78-2,.3-3.42,2.38-5.55,1.91C23,38.29,22.21,37.15,20.32,37c-1.33-.1-2.91.54-4.07.23-.94-.26-2.26-.86-1.15-1.68,0,0-2.16-.92-2.32-1-1.77-1.32-1.56-1.38-.2-2.54.82-.7,1.43-.62,2.11-1.39A13.67,13.67,0,0,0,16.79,28c1.48-3.07-2-3.65-2.15-4.42-.32-2,.7-.82,1.89-1.48s.91-1.6,1-2.91c.23-2.57,0-4.27,1.86-6.1,1.21-1.19,3.35-1.63,5.15-1.76"/>
</svg>
